<svg xmlns="http://www.w3.org/2000/svg" viewBox="0 0 400 400"><defs><style>.cls-1{fill:#fff;}.cls-2{fill:none;}.cls-3{fill:#7fdd40;}</style></defs><title>logo-rg-2.0Artboard 3 copy 7</title><g id="Layer_4" data-name="Layer 4"><path class="cls-1" d="M200,101.11a66,66,0,1,0,66,66A66,66,0,0,0,200,101.11Zm0,96a30,30,0,1,1,30-30A30,30,0,0,1,200,197.09Z"/><path class="cls-2" d="M209.6,137.1H128a78.06,78.06,0,1,0,30.45-36H209.6Z"/><path class="cls-1" d="M183.39,254.9H329.68a5,5,0,0,1,5,5v26a5,5,0,0,1-5,5H183.39a3,3,0,0,1-3-3v-30a3,3,0,0,1,3-3Z" transform="translate(365.1 -86.58) rotate(60)"/><path class="cls-3" d="M200,53.12a113.85,113.85,0,0,1,92.94,48h-51.4a78,78,0,1,0,34.33,84H200a18,18,0,0,1,0-36H312.54A114,114,0,1,1,200,53.12Z"/></g></svg>